# xmcd CD database file
#
# Track frame offsets:
#	150
#	14953
#	28385
#	46047
#	58107
#	70071
#	83386
#	96483
#	108305
#	120963
#	140693
#	152250
#	164930
#	179372
#	189575
#	202514
#	211524
#	223606
#	237511
#	248191
#	262041
#	274366
#	290171
#	302384
#	314091
#
# Disc length: 4366 seconds
#
# Revision: 4
# Processed by: cddbd v1.5.1PL2 Copyright (c) Steve Scherf et al.
# Submitted via: jetAudio 5
#
DISCID=74110c19
DTITLE=Various Artist - The Best Country In Town
DYEAR=1900
DGENRE=
TTITLE0=Wynners - 4.55(Part of Game)
TTITLE1=Jim Deeves - Danny Boy
TTITLE2=Freddie Aguilar - Child
TTITLE3=Clife Richard - Evergreen Tree
TTITLE4=Skeeter Davis - The End of The World
TTITLE5=The Brothers Four - The Greenleaves Of Summer
TTITLE6=Hank Illiams - Jambalaya
TTITLE7=Donna Fargo - The Happiest Girl In The Whole USA
TTITLE8=Peter Paul - 500 Miles
TTITLE9=Conway Twitty and Joni Lee - Don't Cry Joni
TTITLE10=Richard Johns - When A Child Is Born
TTITLE11=Bobby Bare - Detroit City
TTITLE12=Andy Williams - El Condor Pasa
TTITLE13=Patsy Cline - Seven Lonely Days
TTITLE14=Johnny Horton - North To Alaska
TTITLE15=The Everly Brothers - Crying in The Rain
TTITLE16=Tammy Wynette - Stand By Your Man
TTITLE17=The Brother Four - Lemon Tree
TTITLE18=Jim Reeves - He'll Have Yo Go
TTITLE19=Kingston Trio - Tom Dooley
TTITLE20=Hank Williams - You Cheatin Heart
TTITLE21=Peter Paul and Marry - Puff
TTITLE22=Donna Forgo - Funny Face
TTITLE23=Richard Johns - I'll Have To Say I Love You In A Song
TTITLE24=Dickey Lee - 9999999 Tears
EXTD=
EXTT0=
EXTT1=
EXTT2=
EXTT3=
EXTT4=
EXTT5=
EXTT6=
EXTT7=
EXTT8=
EXTT9=
EXTT10=
EXTT11=
EXTT12=
EXTT13=
EXTT14=
EXTT15=
EXTT16=
EXTT17=
EXTT18=
EXTT19=
EXTT20=
EXTT21=
EXTT22=
EXTT23=
EXTT24=
PLAYORDER=
